<?xml version="1.0" encoding="UTF-8" standalone="no"?>
<!DOCTYPE svg PUBLIC "-//W3C//DTD SVG 1.1//EN" "http://www.w3.org/Graphics/SVG/1.1/DTD/svg11.dtd">
<svg version="1.1" xmlns="http://www.w3.org/2000/svg" xmlns:xlink="http://www.w3.org/1999/xlink" preserveAspectRatio="xMidYMid meet" viewBox="12.357713637619156 259.69425019259785 240.28457272476166 303.30574980740215" width="236.28" height="299.31"><defs><path d="M197.86 553.13C183.28 569.88 130.95 554.95 81.07 519.82C31.2 484.7 2.58 442.56 17.16 425.84C31.75 409.11 84.08 424.05 133.95 459.17C183.83 494.3 212.45 536.4 197.86 553.13Z" id="b10ngpT30j"></path><path d="M186.16 537.17C167.53 550.25 120.73 524.41 81.78 479.51C42.78 434.6 26.29 387.52 44.93 374.44C63.61 361.37 110.36 387.2 149.35 432.11C188.31 477.02 204.8 524.1 186.16 537.17Z" id="b38b61TTYU"></path><path d="M143.93 466.29C120.38 464.36 105.88 416.76 111.61 360.03C117.34 303.31 141.13 258.83 164.68 260.75C188.23 262.68 202.7 310.29 196.97 367.01C191.23 423.73 167.49 468.22 143.93 466.29Z" id="fFL6cEycZ"></path><path d="M166 516.81C147.37 529.88 100.61 504.05 61.62 459.14C22.66 414.23 6.17 367.15 24.81 354.07C43.45 341 90.24 366.84 129.19 411.74C168.15 456.65 184.64 503.73 166 516.81Z" id="anPEZ6hdP"></path><path d="M198.72 555.37C175.13 553.97 159.34 506.71 163.47 449.88C167.6 393.06 190.1 348.05 213.73 349.41C237.33 350.81 253.12 398.07 248.99 454.9C244.85 511.72 222.35 556.77 198.72 555.37Z" id="c5q0FLadw"></path><path d="M67.82 289.12C46.64 298.65 52.49 347.73 80.84 398.63C109.19 449.57 149.39 483.22 170.53 473.69C191.7 464.19 185.85 415.11 157.5 364.17C129.15 313.23 88.95 279.61 67.82 289.12Z" id="a2xyaCehl1"></path><path d="M196.19 557.33C174.39 565.61 136.72 529.71 112.04 477.23C87.39 424.78 85.09 375.46 106.85 367.19C128.65 358.91 166.36 394.81 191 447.25C215.64 499.73 217.98 549.06 196.19 557.33Z" id="a18cClFIpH"></path><path d="M132.74 458.41C123.06 463.72 110.68 459.78 105.11 449.62C99.53 439.46 102.87 426.9 112.54 421.59C122.22 416.28 134.6 420.22 140.18 430.38C145.75 440.54 142.42 453.1 132.74 458.41Z" id="a18TmG03B"></path><path d="M176.74 437.64C167.06 442.95 154.68 439.01 149.11 428.84C143.53 418.68 146.87 406.12 156.54 400.81C166.22 395.5 178.6 399.45 184.18 409.61C189.75 419.77 186.42 432.33 176.74 437.64Z" id="ivuXIPtkq"></path><path d="M125.64 443C125.64 444.66 124.07 446 122.14 446C120.21 446 118.64 444.66 118.64 443C118.64 441.34 120.21 440 122.14 440C124.07 440 125.64 441.34 125.64 443Z" id="ddDZsKkpr"></path><path d="M168.64 421C168.64 422.66 167.07 424 165.14 424C163.21 424 161.64 422.66 161.64 421C161.64 419.34 163.21 418 165.14 418C167.07 418 168.64 419.34 168.64 421Z" id="a5b8JhxqE"></path><path d="M105.64 414L97.64 426L105.64 414Z" id="c1SJHWBvbl"></path><path d="M157.44 389.6L143.84 394.4L157.44 389.6Z" id="b9nht0bg1"></path></defs><g><g><use xlink:href="#b10ngpT30j" opacity="1" fill="#617c23" fill-opacity="1"></use><g><use xlink:href="#b10ngpT30j" opacity="1" fill-opacity="0" stroke="#000000" stroke-width="1" stroke-opacity="0"></use></g></g><g><use xlink:href="#b38b61TTYU" opacity="1" fill="#375722" fill-opacity="1"></use><g><use xlink:href="#b38b61TTYU" opacity="1" fill-opacity="0" stroke="#000000" stroke-width="1" stroke-opacity="0"></use></g></g><g><use xlink:href="#fFL6cEycZ" opacity="1" fill="#a1872b" fill-opacity="1"></use><g><use xlink:href="#fFL6cEycZ" opacity="1" fill-opacity="0" stroke="#000000" stroke-width="1" stroke-opacity="0"></use></g></g><g><use xlink:href="#anPEZ6hdP" opacity="1" fill="#375722" fill-opacity="1"></use><g><use xlink:href="#anPEZ6hdP" opacity="1" fill-opacity="0" stroke="#000000" stroke-width="1" stroke-opacity="0"></use></g></g><g><use xlink:href="#c5q0FLadw" opacity="1" fill="#375722" fill-opacity="1"></use><g><use xlink:href="#c5q0FLadw" opacity="1" fill-opacity="0" stroke="#000000" stroke-width="1" stroke-opacity="0"></use></g></g><g><use xlink:href="#a2xyaCehl1" opacity="1" fill="#617c23" fill-opacity="1"></use><g><use xlink:href="#a2xyaCehl1" opacity="1" fill-opacity="0" stroke="#000000" stroke-width="1" stroke-opacity="0"></use></g></g><g><use xlink:href="#a18cClFIpH" opacity="1" fill="#a1872b" fill-opacity="1"></use><g><use xlink:href="#a18cClFIpH" opacity="1" fill-opacity="0" stroke="#000000" stroke-width="1" stroke-opacity="0"></use></g></g><g><use xlink:href="#a18TmG03B" opacity="1" fill="#ffffff" fill-opacity="1"></use></g><g><use xlink:href="#ivuXIPtkq" opacity="1" fill="#ffffff" fill-opacity="1"></use></g><g><use xlink:href="#ddDZsKkpr" opacity="1" fill="#14883f" fill-opacity="1"></use></g><g><use xlink:href="#a5b8JhxqE" opacity="1" fill="#14883f" fill-opacity="1"></use></g><g><g><use xlink:href="#c1SJHWBvbl" opacity="1" fill-opacity="0" stroke="#000000" stroke-width="3" stroke-opacity="1"></use></g></g><g><g><use xlink:href="#b9nht0bg1" opacity="1" fill-opacity="0" stroke="#000000" stroke-width="3" stroke-opacity="1"></use></g></g></g></svg>