<?xml version="1.0" encoding="UTF-8" standalone="no"?>
<!DOCTYPE svg PUBLIC "-//W3C//DTD SVG 1.1//EN" "http://www.w3.org/Graphics/SVG/1.1/DTD/svg11.dtd">
<svg version="1.1" xmlns="http://www.w3.org/2000/svg" xmlns:xlink="http://www.w3.org/1999/xlink" preserveAspectRatio="xMidYMid meet" viewBox="9.684646112491706 2.4240506062646467 64.59426529301841 89.37527513407603" width="60.59" height="85.38"><defs><path d="M41.61 60.04C54.4 70.06 61.74 82.07 58 86.84C54.26 91.62 40.84 87.36 28.05 77.34C15.26 67.32 7.92 55.3 11.66 50.53C15.4 45.76 28.82 50.02 41.61 60.04Z" id="aUXRBT8NE"></path><path d="M45.56 52.32C55.55 65.13 59.78 78.56 55 82.29C50.22 86.02 38.22 78.65 28.23 65.84C18.23 53.03 14 39.6 18.78 35.87C23.57 32.14 35.56 39.51 45.56 52.32Z" id="a1izbDxjE7"></path><path d="M57.77 33.75C56.3 49.93 50.21 62.62 44.17 62.07C38.13 61.52 34.41 47.94 35.88 31.76C37.35 15.58 43.45 2.89 49.49 3.44C55.53 3.99 59.24 17.57 57.77 33.75Z" id="baAAQ5DlS"></path><path d="M40.39 46.51C50.38 59.32 54.61 72.75 49.83 76.48C45.05 80.21 33.06 72.84 23.06 60.03C13.07 47.22 8.84 33.79 13.62 30.06C18.4 26.33 30.4 33.7 40.39 46.51Z" id="a1Pt0cpMg1"></path><path d="M71.11 58.82C70.05 75.03 64.28 87.88 58.22 87.48C52.17 87.08 48.12 73.6 49.18 57.39C50.24 41.18 56.01 28.34 62.07 28.73C68.12 29.13 72.17 42.61 71.11 58.82Z" id="a19itAtRW"></path><path d="M47.65 32.94C40.38 18.41 30.07 8.82 24.65 11.53C19.22 14.25 20.72 28.25 27.99 42.77C35.26 57.3 45.57 66.9 50.99 64.18C56.42 61.47 54.92 47.47 47.65 32.94Z" id="b1RiL6PlUq"></path><path d="M56.24 56.64C62.56 71.61 63.16 85.68 57.57 88.04C51.98 90.4 42.32 80.16 35.99 65.19C29.67 50.23 29.08 36.16 34.66 33.8C40.25 31.44 49.92 41.68 56.24 56.64Z" id="d45RXImO1r"></path></defs><g><g><use xlink:href="#aUXRBT8NE" opacity="1" fill="#617c23" fill-opacity="1"></use></g><g><use xlink:href="#a1izbDxjE7" opacity="1" fill="#375722" fill-opacity="1"></use></g><g><use xlink:href="#baAAQ5DlS" opacity="1" fill="#a1872b" fill-opacity="1"></use></g><g><use xlink:href="#a1Pt0cpMg1" opacity="1" fill="#375722" fill-opacity="1"></use></g><g><use xlink:href="#a19itAtRW" opacity="1" fill="#375722" fill-opacity="1"></use></g><g><use xlink:href="#b1RiL6PlUq" opacity="1" fill="#617c23" fill-opacity="1"></use></g><g><use xlink:href="#d45RXImO1r" opacity="1" fill="#a1872b" fill-opacity="1"></use></g></g></svg>